# xmcd
#
# Track frame offsets: 
#        150
#        20836
#        36669
#
# Disc length: 686 seconds
#
# Revision: 0
# Processed by: cddbd v1.5.1PL2 Copyright (c) Steve Scherf et al.
# Submitted via: ExactAudioCopy v0.95a5
#
DISCID=2602ac03
DTITLE=FourPlay String Quartet - part 2
DYEAR=2006
DGENRE=Indie
TTITLE0=Downtown Nudnik
TTITLE1=Drunken Hearted Man Blues
TTITLE2=Can't Trust This
EXTD=
EXTT0=
EXTT1=
EXTT2=
PLAYORDER=
